<svg xmlns="http://www.w3.org/2000/svg" width="13.647" height="11.925" viewBox="0 0 13.647 11.925">
  <g id="그룹_12762" data-name="그룹 12762" transform="translate(3296 -1068.844)">
    <path id="패스_2642" data-name="패스 2642" d="M-3284.74,1071.858l-.823-2.152a.551.551,0,0,0-.511-.362h-4.2a.552.552,0,0,0-.511.362l-.823,2.152a.552.552,0,0,1-.511.361h-1.828a.563.563,0,0,0-.55.575v6.9a.563.563,0,0,0,.55.575h11.548a.563.563,0,0,0,.55-.575v-6.9a.563.563,0,0,0-.55-.575h-1.828A.551.551,0,0,1-3284.74,1071.858Z" transform="translate(-1)" fill="none" stroke="#fff" stroke-linecap="round" stroke-linejoin="round" stroke-width="1"/>
    <circle id="타원_304" data-name="타원 304" cx="2.612" cy="2.612" r="2.612" transform="translate(-3291.788 1072.826)" fill="none" stroke="#fff" stroke-linecap="round" stroke-linejoin="round" stroke-width="1"/>
  </g>
</svg>
