<svg id="그룹_11156" data-name="그룹 11156" xmlns="http://www.w3.org/2000/svg" width="130.199" height="18.038" viewBox="0 0 130.199 18.038">
  <ellipse id="타원_254" data-name="타원 254" cx="1.594" cy="1.598" rx="1.594" ry="1.598" transform="translate(100.463 14.553)"/>
  <path id="패스_1986" data-name="패스 1986" d="M256.184,278.387l.025,4.174h9.606v2.692H256.2l-.012,4.729h9.654v2.684h-13.25V275.673h13.25l-.031,2.724Z" transform="translate(-170.461 -275.017)"/>
  <path id="패스_1987" data-name="패스 1987" d="M323.606,275.571h3.514V292.6h-3.514Z" transform="translate(-214.999 -274.953)"/>
  <g id="그룹_11154" data-name="그룹 11154" transform="translate(116.982 0.655)">
    <path id="패스_1988" data-name="패스 1988" d="M359.284,275.671H346.067v2.789h4.794v14.2h3.514v-14.2h4.909Z" transform="translate(-346.067 -275.671)"/>
  </g>
  <path id="패스_1989" data-name="패스 1989" d="M215.933,292.671l-4.706-7.113a5.363,5.363,0,0,0,3.076-4.623c0-2.9-2.661-5.252-5.943-5.252h-6.266v.005H201.2l-.167-.006v16.989h3.6V286.3h3.425l4.217,6.374Zm-11.3-14.323h3.036a2.662,2.662,0,1,1,0,5.283h-3.036Z" transform="translate(-138.129 -275.023)"/>
  <g id="그룹_11155" data-name="그룹 11155">
    <path id="패스_1990" data-name="패스 1990" d="M96.863,275.575v6.551H88.406v-6.551h-3.55V292.6h3.55v-7.489h8.457V292.6h3.55v-17.03Z" transform="translate(-65.269 -274.955)"/>
    <path id="패스_1991" data-name="패스 1991" d="M45.611,283.507a5.025,5.025,0,0,0-1.755-1.084,15.767,15.767,0,0,0-2.158-.8l-2.281-.688c-1.659-.5-2.488-1.523-2.488-2.345a1.7,1.7,0,0,1,.889-1.443,4.02,4.02,0,0,1,1.916-.465c1.547,0,2.828.78,3.054,1.8l3.4.019c0-.005,0-.01,0-.015s0-.015,0-.022a4.18,4.18,0,0,0-3.088-3.963,9.607,9.607,0,0,0-3.4-.583,9.2,9.2,0,0,0-3.835.768,4.142,4.142,0,0,0-2.574,3.778c0,.005,0,.01,0,.015s0,.015,0,.022a4.089,4.089,0,0,0,1.99,3.472A9.452,9.452,0,0,0,38,283.279l2.315.6a11.366,11.366,0,0,1,1.481.573,5.1,5.1,0,0,1,.771.452,2.278,2.278,0,0,1,.9,1.819,2.309,2.309,0,0,1-.76,1.7,4.338,4.338,0,0,1-2.968.937,5.352,5.352,0,0,1-2.279-.464,2.384,2.384,0,0,1-1.5-2.174l-3.645.059a4.674,4.674,0,0,0,2.934,4.263,10.5,10.5,0,0,0,4.469.909c2.547,0,4.751-.748,5.819-1.837a4.551,4.551,0,0,0,1.468-2.907,4.791,4.791,0,0,0,.045-.636,3.839,3.839,0,0,0-1.288-2.929C45.721,283.6,45.664,283.553,45.611,283.507Z" transform="translate(-32.324 -273.914)"/>
  </g>
  <path id="패스_1992" data-name="패스 1992" d="M139.265,292.38h3.809l5.482-10.645,5.187,10.645h3.871l-8.461-17.164h-1.147Z" transform="translate(-99.391 -274.73)" fill="#0077ed"/>
</svg>
